<?xml version="1.0" encoding="UTF-8" standalone="no"?>
<!-- Created with Inkscape (http://www.inkscape.org/) -->

<svg
   version="1.1"
   id="svg1"
   width="2048"
   height="2048"
   viewBox="0 0 2048 2048"
   sodipodi:docname="logo.svg"
   inkscape:export-filename="logo.png"
   inkscape:export-xdpi="96"
   inkscape:export-ydpi="96"
   inkscape:version="1.4.2 (ebf0e940, 2025-05-08)"
   xmlns:inkscape="http://www.inkscape.org/namespaces/inkscape"
   xmlns:sodipodi="http://sodipodi.sourceforge.net/DTD/sodipodi-0.dtd"
   xmlns="http://www.w3.org/2000/svg"
   xmlns:svg="http://www.w3.org/2000/svg">
  <defs
     id="defs1" />
  <sodipodi:namedview
     id="namedview1"
     pagecolor="#ffffff"
     bordercolor="#000000"
     borderopacity="0.25"
     inkscape:showpageshadow="2"
     inkscape:pageopacity="0.0"
     inkscape:pagecheckerboard="0"
     inkscape:deskcolor="#d1d1d1"
     inkscape:export-bgcolor="#ffffff00"
     inkscape:zoom="0.40625"
     inkscape:cx="749.53846"
     inkscape:cy="1117.5385"
     inkscape:window-width="2560"
     inkscape:window-height="1021"
     inkscape:window-x="0"
     inkscape:window-y="31"
     inkscape:window-maximized="1"
     inkscape:current-layer="g1" />
  <g
     inkscape:groupmode="layer"
     inkscape:label="Image"
     id="g1">
    <path
       style="fill:#1b1359;fill-opacity:1;stroke:none"
       d="m 987,2036.4105 c -3.025,-0.2036 -13.6,-0.853 -23.5,-1.443 -146.28969,-8.7192 -293.62614,-51.4838 -420.77606,-122.131 C 495.87781,1886.8078 447.75823,1855.2692 410.5,1826.174 372.6895,1796.6475 347.09874,1774.1514 315.92326,1743.0344 224.42818,1651.7109 157.07509,1555.4062 102.93941,1438.5 75.638164,1379.5429 51.463362,1307.5104 38.166707,1245.5 26.373491,1190.5011 20.909721,1152.5464 15.781696,1090 13.762632,1065.3735 14.123023,970.90301 16.334849,945 19.641666,906.27338 24.592529,868.22015 30.06078,839.5 56.219401,702.11065 108.99646,574.41891 187.74088,458 224.82248,403.17708 266.88627,352.90777 316.63034,303.96762 449.21083,173.52978 608.92343,83.697874 787.5,39.122393 839.24708,26.20552 887.94785,18.164477 943,13.447602 c 25.51111,-2.185795 101.9759,-3.071458 131.6783,-1.525178 102.7299,5.348026 193.4372,23.834308 290.6372,59.232285 89.1226,32.456381 170.6635,76.329781 252.0761,135.630651 101.6495,74.0413 198.1923,178.22682 264.2921,285.21464 23.1463,37.46418 47.7713,83.8084 65.2889,122.87405 49.3985,110.16226 78.8628,233.11929 85.0992,355.12595 1.1453,22.40431 0.7204,104.4263 -0.619,119.5 -0.2932,3.3 -1.208,13.65 -2.0328,23 -17.8293,202.0961 -91.2265,383.8218 -219.9183,544.5 -42.0554,52.5082 -103.1642,113.7811 -155.2858,155.7028 -104.1613,83.7773 -219.3647,144.6139 -345.9096,182.668 -73.7583,22.1802 -140.0625,33.9996 -222.3063,39.6282 -15.5394,1.0635 -88.67649,2.1062 -99,1.4115 z"
       id="path1"
       sodipodi:nodetypes="scssssssssssssssssssscsssss" />
    <path
       style="fill:#ffff00;fill-opacity:1;stroke:none;stroke-width:4.94099;stroke-linejoin:round"
       d="m 778.22505,1361.7434 c -12.40427,-4.07 -21.55065,-10.0896 -30.6733,-20.1873 -18.92734,-20.9502 -17.48537,5.322 -17.48537,-318.581 0,-321.99299 -1.26948,-297.34608 16.34881,-317.41221 12.07657,-13.75445 29.22155,-20.99188 49.79862,-21.02156 14.22994,-0.0205 19.30273,1.26769 33.85978,8.5985 9.41723,4.74244 88.59978,50.73643 175.96111,102.20886 311.4992,183.5321 295.6671,173.5161 306.476,193.8885 4.3074,8.1183 5.4481,14.40631 5.4481,30.03211 0,23.2701 -5.1326,35.3567 -20.6071,48.5269 -5.3602,4.562 -59.5951,38.8111 -120.5219,76.1091 -219.48243,134.3622 -333.37237,203.4982 -347.11657,210.7145 -14.83672,7.79 -39.18867,11.1592 -51.48818,7.1236 z"
       id="path2" />
    <path
       style="fill:#ffffff;fill-opacity:1;stroke:none;stroke-width:4.92308;stroke-linejoin:round"
       d="m 284.7408,815.66036 c -17.85966,-5.14501 -34.84123,-29.40443 -34.88077,-49.82974 -0.0315,-16.28327 29.47151,-89.87485 54.8664,-136.8574 77.71888,-143.78593 203.4761,-267.45629 345.48405,-339.75096 68.8871,-35.06966 85.49653,-39.1226 107.49532,-26.23044 16.43525,9.63169 24.62237,22.97434 25.84106,42.11335 0.7599,11.9338 -0.1344,17.47371 -4.06427,25.17689 -6.27786,12.30559 -19.78474,24.36054 -33.21997,29.64896 -5.64435,2.22175 -27.4317,12.60766 -48.41633,23.07978 -67.747,33.80835 -125.54545,76.166 -179.82587,131.78556 -73.38198,75.19239 -118.04017,145.33361 -156.30065,245.48957 -8.03438,21.0319 -15.70847,36.97576 -19.99458,41.54117 -13.74579,14.6415 -35.68842,19.96817 -56.98439,13.83326 z"
       id="path3" />
    <path
       style="fill:#ffffff;fill-opacity:1;stroke:none;stroke-width:4.92308;stroke-linejoin:round"
       d="m 1302.1539,1788.4611 c -27.3854,-6.6432 -46.2478,-33.177 -41.896,-58.9352 3.4254,-20.2744 18.1328,-35.3988 45.5884,-46.881 30.4142,-12.7195 73.596,-36.4897 107.7671,-59.3224 131.2066,-87.6706 227.5643,-215.321 274.0238,-363.0148 4.3083,-13.6957 9.9103,-25.7053 14.6732,-31.4561 30.2871,-36.5686 89.0213,-19.8643 92.8587,26.4095 3.4704,41.8482 -61.1825,181.2153 -122.5142,264.0941 -37.1987,50.2673 -94.273,109.5196 -143.9649,149.4585 -39.339,31.6179 -96.7602,68.7287 -139.3116,90.0357 -57.4575,28.7711 -71.3073,33.4729 -87.2245,29.6117 z"
       id="path4" />
  </g>
</svg>
